<svg id="diagram-stats-components" width="100%" xmlns="http://www.w3.org/2000/svg" viewBox="0 0 631.84375 450" style="min-width: 800px" role="graphics-document document" aria-roledescription="pie"><style>#diagram-stats-components{font-family:"trebuchet ms",verdana,arial,sans-serif;font-size:16px;fill:#333;}@keyframes edge-animation-frame{from{stroke-dashoffset:0;}}@keyframes dash{to{stroke-dashoffset:0;}}#diagram-stats-components .edge-animation-slow{stroke-dasharray:9,5!important;stroke-dashoffset:900;animation:dash 50s linear infinite;stroke-linecap:round;}#diagram-stats-components .edge-animation-fast{stroke-dasharray:9,5!important;stroke-dashoffset:900;animation:dash 20s linear infinite;stroke-linecap:round;}#diagram-stats-components .error-icon{fill:#552222;}#diagram-stats-components .error-text{fill:#552222;stroke:#552222;}#diagram-stats-components .edge-thickness-normal{stroke-width:1px;}#diagram-stats-components .edge-thickness-thick{stroke-width:3.5px;}#diagram-stats-components .edge-pattern-solid{stroke-dasharray:0;}#diagram-stats-components .edge-thickness-invisible{stroke-width:0;fill:none;}#diagram-stats-components .edge-pattern-dashed{stroke-dasharray:3;}#diagram-stats-components .edge-pattern-dotted{stroke-dasharray:2;}#diagram-stats-components .marker{fill:#333333;stroke:#333333;}#diagram-stats-components .marker.cross{stroke:#333333;}#diagram-stats-components svg{font-family:"trebuchet ms",verdana,arial,sans-serif;font-size:16px;}#diagram-stats-components p{margin:0;}#diagram-stats-components .pieCircle{stroke:black;stroke-width:2px;opacity:0.7;}#diagram-stats-components .pieOuterCircle{stroke:black;stroke-width:2px;fill:none;}#diagram-stats-components .pieTitleText{text-anchor:middle;font-size:25px;fill:black;font-family:"trebuchet ms",verdana,arial,sans-serif;}#diagram-stats-components .slice{font-family:"trebuchet ms",verdana,arial,sans-serif;fill:#333;font-size:17px;}#diagram-stats-components .legend text{fill:black;font-family:"trebuchet ms",verdana,arial,sans-serif;font-size:17px;}#diagram-stats-components :root{--mermaid-font-family:"trebuchet ms",verdana,arial,sans-serif;}</style><g></g><g transform="translate(225,225)"><circle cx="0" cy="0" r="186" class="pieOuterCircle"></circle><path d="M0,-185A185,185,0,0,1,182.073,32.78L0,0Z" fill="#ECECFF" class="pieCircle"></path><path d="M182.073,32.78A185,185,0,0,1,5.991,184.903L0,0Z" fill="#ffffde" class="pieCircle"></path><path d="M5.991,184.903A185,185,0,0,1,-162.174,89.019L0,0Z" fill="hsl(80, 100%, 56.2745098039%)" class="pieCircle"></path><path d="M-162.174,89.019A185,185,0,0,1,-180.916,-38.659L0,0Z" fill="hsl(240, 100%, 86.2745098039%)" class="pieCircle"></path><path d="M-180.916,-38.659A185,185,0,0,1,-145.7,-114.002L0,0Z" fill="hsl(60, 100%, 63.5294117647%)" class="pieCircle"></path><path d="M-145.7,-114.002A185,185,0,0,1,-91.634,-160.712L0,0Z" fill="hsl(80, 100%, 76.2745098039%)" class="pieCircle"></path><path d="M-91.634,-160.712A185,185,0,0,1,-47.399,-178.825L0,0Z" fill="hsl(300, 100%, 76.2745098039%)" class="pieCircle"></path><path d="M-47.399,-178.825A185,185,0,0,1,0,-185L0,0Z" fill="hsl(180, 100%, 56.2745098039%)" class="pieCircle"></path><text transform="translate(106.44896887434932,-88.99539047382066)" class="slice" style="text-anchor: middle;">28%</text><text transform="translate(90.7074572013838,104.9939031947052)" class="slice" style="text-anchor: middle;">22%</text><text transform="translate(-68.72537217948577,120.53375344189345)" class="slice" style="text-anchor: middle;">18%</text><text transform="translate(-137.2789907090444,20.150464260311736)" class="slice" style="text-anchor: middle;">11%</text><text transform="translate(-125.69740038728447,-58.75139177822682)" class="slice" style="text-anchor: middle;">7%</text><text transform="translate(-90.70745720138372,-104.99390319470525)" class="slice" style="text-anchor: middle;">6%</text><text transform="translate(-52.577929417009976,-128.40219561292525)" class="slice" style="text-anchor: middle;">4%</text><text transform="translate(-17.924854063612543,-137.5872890451665)" class="slice" style="text-anchor: middle;">4%</text><text x="0" y="-200" class="pieTitleText"></text><g class="legend" transform="translate(216,-88)"><rect width="18" height="18" style="fill: rgb(236, 236, 255); stroke: rgb(236, 236, 255);"></rect><text x="22" y="14">form [27]</text></g><g class="legend" transform="translate(216,-66)"><rect width="18" height="18" style="fill: rgb(255, 255, 222); stroke: rgb(255, 255, 222);"></rect><text x="22" y="14">other [21]</text></g><g class="legend" transform="translate(216,-44)"><rect width="18" height="18" style="fill: rgb(181, 255, 32); stroke: rgb(181, 255, 32);"></rect><text x="22" y="14">feedback [17]</text></g><g class="legend" transform="translate(216,-22)"><rect width="18" height="18" style="fill: rgb(185, 185, 255); stroke: rgb(185, 185, 255);"></rect><text x="22" y="14">navigation [11]</text></g><g class="legend" transform="translate(216,0)"><rect width="18" height="18" style="fill: rgb(255, 255, 69); stroke: rgb(255, 255, 69);"></rect><text x="22" y="14">action [7]</text></g><g class="legend" transform="translate(216,22)"><rect width="18" height="18" style="fill: rgb(215, 255, 134); stroke: rgb(215, 255, 134);"></rect><text x="22" y="14">data-display [6]</text></g><g class="legend" transform="translate(216,44)"><rect width="18" height="18" style="fill: rgb(255, 134, 255); stroke: rgb(255, 134, 255);"></rect><text x="22" y="14">layout [4]</text></g><g class="legend" transform="translate(216,66)"><rect width="18" height="18" style="fill: rgb(32, 255, 255); stroke: rgb(32, 255, 255);"></rect><text x="22" y="14">utility [4]</text></g></g></svg>